<?xml version="1.0" standalone="no"?>
<!DOCTYPE svg PUBLIC "-//W3C//DTD SVG 20010904//EN"
 "http://www.w3.org/TR/2001/REC-SVG-20010904/DTD/svg10.dtd">
<svg version="1.0" xmlns="http://www.w3.org/2000/svg"
 width="94.000000pt" height="94.000000pt" viewBox="0 0 94.000000 94.000000"
 preserveAspectRatio="xMidYMid meet">
<metadata>
Created by potrace 1.14, written by Peter Selinger 2001-2017
</metadata>
<g transform="translate(0.000000,94.000000) scale(0.100000,-0.100000)"
fill="#000000" stroke="none">
<path d="M70 675 l0 -225 45 0 45 0 0 100 0 100 90 0 90 0 0 -100 0 -100 45 0
45 0 0 225 0 225 -45 0 -45 0 0 -85 0 -85 -90 0 -90 0 0 85 0 85 -45 0 -45 0
0 -225z"/>
<path d="M606 780 c-63 -19 -96 -76 -96 -165 0 -31 5 -66 11 -78 44 -86 137
-113 197 -57 l22 21 0 -44 c0 -49 -12 -64 -57 -73 -23 -5 -36 -1 -50 13 -12
12 -39 22 -67 25 -41 5 -46 3 -46 -14 0 -56 54 -88 151 -88 82 0 123 21 143
71 12 31 16 78 16 214 l0 175 -40 0 c-34 0 -40 -3 -40 -21 0 -20 0 -20 -27 -1
-35 25 -80 33 -117 22z m113 -86 c31 -39 29 -117 -4 -149 -53 -54 -115 -13
-115 75 0 60 28 100 70 100 19 0 36 -9 49 -26z"/>
<path d="M70 165 l0 -135 25 0 25 0 0 135 0 135 -25 0 -25 0 0 -135z"/>
<path d="M410 275 c0 -20 5 -25 25 -25 20 0 25 5 25 25 0 20 -5 25 -25 25 -20
0 -25 -5 -25 -25z"/>
<path d="M532 274 c-12 -8 -22 -24 -22 -35 0 -10 -4 -19 -10 -19 -5 0 -10 -9
-10 -20 0 -11 5 -20 10 -20 6 0 10 -25 10 -56 0 -74 12 -94 55 -94 28 0 35 4
35 20 0 11 -7 20 -15 20 -12 0 -15 13 -15 55 0 42 3 55 15 55 8 0 15 9 15 20
0 11 -7 20 -15 20 -10 0 -15 11 -15 35 0 39 -6 42 -38 19z"/>
<path d="M242 214 c-12 -8 -22 -10 -22 -5 0 6 -11 11 -25 11 -25 0 -25 0 -25
-95 0 -93 0 -95 24 -95 22 0 24 5 29 66 6 75 25 106 55 88 13 -9 18 -28 20
-83 3 -68 4 -71 27 -71 25 0 25 1 25 84 0 76 -2 86 -22 100 -12 9 -32 16 -43
16 -11 0 -31 -7 -43 -16z"/>
<path d="M410 125 c0 -95 0 -95 25 -95 25 0 25 0 25 95 0 95 0 95 -25 95 -25
0 -25 0 -25 -95z"/>
</g>
</svg>
